<?xml version="1.0" encoding="UTF-8" standalone="no"?>
<!DOCTYPE svg PUBLIC "-//W3C//DTD SVG 1.1//EN" "http://www.w3.org/Graphics/SVG/1.1/DTD/svg11.dtd">
<svg width="100%" height="100%" viewBox="0 0 130 20" version="1.1" xmlns="http://www.w3.org/2000/svg" xmlns:xlink="http://www.w3.org/1999/xlink" xml:space="preserve" xmlns:serif="http://www.serif.com/" style="fill-rule:evenodd;clip-rule:evenodd;stroke-linejoin:round;stroke-miterlimit:2;">
    <g id="Artboard1" transform="matrix(0.0507812,0,0,0.0138889,0,0)">
        <rect x="0" y="0" width="2560" height="1440" style="fill:none;"/>
        <clipPath id="_clip1">
            <rect x="0" y="0" width="2560" height="1440"/>
        </clipPath>
        <g clip-path="url(#_clip1)">
            <g transform="matrix(21.7713,0,0,79.6012,-10.6556,0)">
                <path d="M10,0L12.245,6.91L19.511,6.91L13.633,11.18L15.878,18.09L10,13.82L4.122,18.09L6.367,11.18L0.489,6.91L7.755,6.91L10,0Z" style="fill:rgb(242,175,13);"/>
            </g>
            <g transform="matrix(21.7713,0,0,79.6012,501.92,0)">
                <path d="M10,0L12.245,6.91L19.511,6.91L13.633,11.18L15.878,18.09L10,13.82L4.122,18.09L6.367,11.18L0.489,6.91L7.755,6.91L10,0Z" style="fill:rgb(242,175,13);"/>
            </g>
            <g transform="matrix(21.7713,0,0,79.6012,1014.5,0)">
                <path d="M10,0L12.245,6.91L19.511,6.91L13.633,11.18L15.878,18.09L10,13.82L4.122,18.09L6.367,11.18L0.489,6.91L7.755,6.91L10,0Z" style="fill:rgb(242,175,13);"/>
            </g>
            <g transform="matrix(21.7713,0,0,79.6012,1527.07,0)">
                <path d="M10,0L12.245,6.91L19.511,6.91L13.633,11.18L15.878,18.09L10,13.82L4.122,18.09L6.367,11.18L0.489,6.91L7.755,6.91L10,0Z" style="fill:rgb(242,175,13);"/>
            </g>
            <g transform="matrix(21.7713,0,0,79.6012,2039.65,0)">
                <path d="M10,0L12.245,6.91L19.511,6.91L13.633,11.18L15.878,18.09L10,13.82L4.122,18.09L6.367,11.18L0.489,6.91L7.755,6.91L10,0Z" style="fill:rgb(242,175,13);"/>
            </g>
        </g>
    </g>
</svg>
