<svg xmlns="http://www.w3.org/2000/svg" xmlns:xlink="http://www.w3.org/1999/xlink" width="100%" height="100%" version="1.1" viewBox="0 0 130 20" xml:space="preserve" style="fill-rule:evenodd;clip-rule:evenodd;stroke-linejoin:round;stroke-miterlimit:2"><g id="Artboard1" transform="matrix(0.0507812,0,0,0.0138889,0,0)"><rect width="2560" height="1440" x="0" y="0" style="fill:none"/><clipPath id="_clip1"><rect width="2560" height="1440" x="0" y="0"/></clipPath><g clip-path="url(#_clip1)"><g><path d="M10,0L12.245,6.91L19.511,6.91L13.633,11.18L15.878,18.09L10,13.82L4.122,18.09L6.367,11.18L0.489,6.91L7.755,6.91L10,0Z" style="fill:#f2af0d" transform="matrix(21.7713,0,0,79.6012,-10.6556,0)"/></g><g><path d="M10,0L12.245,6.91L19.511,6.91L13.633,11.18L15.878,18.09L10,13.82L4.122,18.09L6.367,11.18L0.489,6.91L7.755,6.91L10,0Z" style="fill:#f2af0d" transform="matrix(21.7713,0,0,79.6012,501.92,0)"/></g><g><path d="M10,0L12.245,6.91L19.511,6.91L13.633,11.18L15.878,18.09L10,13.82L4.122,18.09L6.367,11.18L0.489,6.91L7.755,6.91L10,0Z" style="fill:#f2af0d" transform="matrix(21.7713,0,0,79.6012,1014.5,0)"/></g><g><path d="M10,0L12.245,6.91L19.511,6.91L13.633,11.18L15.878,18.09L10,13.82L4.122,18.09L6.367,11.18L0.489,6.91L7.755,6.91L10,0Z" style="fill:#f2af0d" transform="matrix(21.7713,0,0,79.6012,1527.07,0)"/></g><g><path d="M10,0L12.245,6.91L19.511,6.91L13.633,11.18L15.878,18.09L10,13.82L4.122,18.09L6.367,11.18L0.489,6.91L7.755,6.91L10,0Z" style="fill:#f2af0d" transform="matrix(21.7713,0,0,79.6012,2039.65,0)"/></g></g></g></svg>